<?xml version="1.0" encoding="UTF-8" standalone="no"?>
<svg width="283.633mm" height="187.325mm"
 viewBox="0 0 804 531"
 xmlns="http://www.w3.org/2000/svg" xmlns:xlink="http://www.w3.org/1999/xlink"  version="1.2" baseProfile="tiny">
<title>Qt SVG Document</title>
<desc>MATLAB, The MathWorks, Inc. Version 25.2.0.2998904 R2025b</desc>
<defs>
</defs>
<g fill="none" stroke="black" stroke-width="1" fill-rule="evenodd" stroke-linecap="square" stroke-linejoin="bevel" >

<g fill="#000000" fill-opacity="1" stroke="none" transform="matrix(0.512127,0,0,0.51411,-94.4726,-41.4282)"
font-family="Yu Gothic UI" font-size="9" font-weight="400" font-style="normal" 
>
<path vector-effect="none" fill-rule="evenodd" d="M184,80 L1753,80 L1753,1114 L184,1114 L184,80"/>
</g>

<g fill="#121212" fill-opacity="1" stroke="none" transform="matrix(5.12127e-05,0,0,5.1411e-05,-94.4726,-41.4282)"
font-family="Yu Gothic UI" font-size="9" font-weight="400" font-style="normal" 
>
<path vector-effect="none" fill-rule="evenodd" d="M2.5e+06,890000 L2.5e+06,1.059e+07 L1.738e+07,1.059e+07 L1.738e+07,890000 L2.5e+06,890000"/>
</g>

<g fill="#ffffff" fill-opacity="0.25098" stroke="#ffffff" stroke-opacity="0.25098" stroke-dasharray="1,3" stroke-dashoffset="0" stroke-width="1" stroke-linecap="butt" stroke-linejoin="round" transform="matrix(0.512127,0,0,0.51411,-94.4726,-41.4282)"
font-family="Yu Gothic UI" font-size="9" font-weight="400" font-style="normal" 
>
<polyline fill="none" vector-effect="none" points="697.933,1059 697.933,89 " />
<polyline fill="none" vector-effect="none" points="959.956,1059 959.956,89 " />
<polyline fill="none" vector-effect="none" points="1145.87,1059 1145.87,89 " />
<polyline fill="none" vector-effect="none" points="1290.07,1059 1290.07,89 " />
<polyline fill="none" vector-effect="none" points="1407.89,1059 1407.89,89 " />
<polyline fill="none" vector-effect="none" points="1507.51,1059 1507.51,89 " />
<polyline fill="none" vector-effect="none" points="1593.8,1059 1593.8,89 " />
<polyline fill="none" vector-effect="none" points="1669.91,1059 1669.91,89 " />
</g>

<g fill="#ffffff" fill-opacity="0.25098" stroke="#ffffff" stroke-opacity="0.25098" stroke-width="1" stroke-linecap="butt" stroke-linejoin="round" transform="matrix(0.512127,0,0,0.51411,-94.4726,-41.4282)"
font-family="Yu Gothic UI" font-size="9" font-weight="400" font-style="normal" 
>
<polyline fill="none" vector-effect="none" points="250,1059 250,89 " />
<polyline fill="none" vector-effect="none" points="1738,1059 1738,89 " />
</g>

<g fill="#ffffff" fill-opacity="0.25098" stroke="#ffffff" stroke-opacity="0.25098" stroke-dasharray="1,3" stroke-dashoffset="0" stroke-width="1" stroke-linecap="butt" stroke-linejoin="round" transform="matrix(0.512127,0,0,0.51411,-94.4726,-41.4282)"
font-family="Yu Gothic UI" font-size="9" font-weight="400" font-style="normal" 
>
<polyline fill="none" vector-effect="none" points="1738,1031.56 250,1031.56 " />
<polyline fill="none" vector-effect="none" points="1738,979.703 250,979.703 " />
<polyline fill="none" vector-effect="none" points="1738,886.27 250,886.27 " />
<polyline fill="none" vector-effect="none" points="1738,843.851 250,843.851 " />
<polyline fill="none" vector-effect="none" points="1738,803.857 250,803.857 " />
<polyline fill="none" vector-effect="none" points="1738,766.025 250,766.025 " />
<polyline fill="none" vector-effect="none" points="1738,695.996 250,695.996 " />
<polyline fill="none" vector-effect="none" points="1738,663.446 250,663.446 " />
<polyline fill="none" vector-effect="none" points="1738,632.343 250,632.343 " />
<polyline fill="none" vector-effect="none" points="1738,602.563 250,602.563 " />
<polyline fill="none" vector-effect="none" points="1738,546.557 250,546.557 " />
<polyline fill="none" vector-effect="none" points="1738,520.15 250,520.15 " />
<polyline fill="none" vector-effect="none" points="1738,494.703 250,494.703 " />
<polyline fill="none" vector-effect="none" points="1738,470.149 250,470.149 " />
<polyline fill="none" vector-effect="none" points="1738,423.485 250,423.485 " />
<polyline fill="none" vector-effect="none" points="1738,401.27 250,401.27 " />
<polyline fill="none" vector-effect="none" points="1738,379.739 250,379.739 " />
<polyline fill="none" vector-effect="none" points="1738,358.851 250,358.851 " />
<polyline fill="none" vector-effect="none" points="1738,318.857 250,318.857 " />
<polyline fill="none" vector-effect="none" points="1738,299.685 250,299.685 " />
<polyline fill="none" vector-effect="none" points="1738,281.025 250,281.025 " />
<polyline fill="none" vector-effect="none" points="1738,262.85 250,262.85 " />
<polyline fill="none" vector-effect="none" points="1738,227.858 250,227.858 " />
<polyline fill="none" vector-effect="none" points="1738,210.996 250,210.996 " />
<polyline fill="none" vector-effect="none" points="1738,194.532 250,194.532 " />
<polyline fill="none" vector-effect="none" points="1738,178.446 250,178.446 " />
<polyline fill="none" vector-effect="none" points="1738,147.343 250,147.343 " />
<polyline fill="none" vector-effect="none" points="1738,132.295 250,132.295 " />
<polyline fill="none" vector-effect="none" points="1738,117.563 250,117.563 " />
<polyline fill="none" vector-effect="none" points="1738,103.136 250,103.136 " />
</g>

<g fill="#ffffff" fill-opacity="0.25098" stroke="#ffffff" stroke-opacity="0.25098" stroke-width="1" stroke-linecap="butt" stroke-linejoin="round" transform="matrix(0.512127,0,0,0.51411,-94.4726,-41.4282)"
font-family="Yu Gothic UI" font-size="9" font-weight="400" font-style="normal" 
>
<polyline fill="none" vector-effect="none" points="1738,931.428 250,931.428 " />
<polyline fill="none" vector-effect="none" points="1738,730.135 250,730.135 " />
<polyline fill="none" vector-effect="none" points="1738,574 250,574 " />
<polyline fill="none" vector-effect="none" points="1738,446.428 250,446.428 " />
<polyline fill="none" vector-effect="none" points="1738,338.568 250,338.568 " />
<polyline fill="none" vector-effect="none" points="1738,245.135 250,245.135 " />
<polyline fill="none" vector-effect="none" points="1738,162.721 250,162.721 " />
<polyline fill="none" vector-effect="none" points="1738,89 250,89 " />
</g>

<g fill="#d9d9d9" fill-opacity="1" stroke="#d9d9d9" stroke-opacity="1" stroke-width="1" stroke-linecap="square" stroke-linejoin="round" transform="matrix(0.512127,0,0,0.51411,-94.4726,-41.4282)"
font-family="Yu Gothic UI" font-size="9" font-weight="400" font-style="normal" 
>
<polyline fill="none" vector-effect="none" points="250,1059 1738,1059 " />
<polyline fill="none" vector-effect="none" points="250,89 1738,89 " />
<polyline fill="none" vector-effect="none" points="250,1059 250,1044.12 " />
<polyline fill="none" vector-effect="none" points="1738,1059 1738,1044.12 " />
<polyline fill="none" vector-effect="none" points="250,89 250,103.88 " />
<polyline fill="none" vector-effect="none" points="1738,89 1738,103.88 " />
<polyline fill="none" vector-effect="none" points="250,1059 250,1051.56 " />
<polyline fill="none" vector-effect="none" points="697.933,1059 697.933,1051.56 " />
<polyline fill="none" vector-effect="none" points="959.956,1059 959.956,1051.56 " />
<polyline fill="none" vector-effect="none" points="1145.87,1059 1145.87,1051.56 " />
<polyline fill="none" vector-effect="none" points="1290.07,1059 1290.07,1051.56 " />
<polyline fill="none" vector-effect="none" points="1407.89,1059 1407.89,1051.56 " />
<polyline fill="none" vector-effect="none" points="1507.51,1059 1507.51,1051.56 " />
<polyline fill="none" vector-effect="none" points="1593.8,1059 1593.8,1051.56 " />
<polyline fill="none" vector-effect="none" points="1669.91,1059 1669.91,1051.56 " />
<polyline fill="none" vector-effect="none" points="1738,1059 1738,1051.56 " />
<polyline fill="none" vector-effect="none" points="250,89 250,96.44 " />
<polyline fill="none" vector-effect="none" points="697.933,89 697.933,96.44 " />
<polyline fill="none" vector-effect="none" points="959.956,89 959.956,96.44 " />
<polyline fill="none" vector-effect="none" points="1145.87,89 1145.87,96.44 " />
<polyline fill="none" vector-effect="none" points="1290.07,89 1290.07,96.44 " />
<polyline fill="none" vector-effect="none" points="1407.89,89 1407.89,96.44 " />
<polyline fill="none" vector-effect="none" points="1507.51,89 1507.51,96.44 " />
<polyline fill="none" vector-effect="none" points="1593.8,89 1593.8,96.44 " />
<polyline fill="none" vector-effect="none" points="1669.91,89 1669.91,96.44 " />
<polyline fill="none" vector-effect="none" points="1738,89 1738,96.44 " />
</g>

<g fill="#d9d9d9" fill-opacity="1" stroke="none" transform="matrix(0.512127,0,0,0.51411,25.3651,518.438)"
font-family="Yu Gothic UI" font-size="9" font-weight="400" font-style="normal" 
>
<path vector-effect="none" fill-rule="evenodd" d="M4.07813,-11.0469 C4.50521,-11.4635 4.73958,-11.9323 4.78125,-12.4531 L5.625,-12.4531 L5.625,-0.28125 L4.01563,-0.28125 L4.01563,-9.64063 L1.90625,-9.64063 L1.90625,-10.4844 L2.53125,-10.4844 C3.1875,-10.4844 3.70313,-10.6719 4.07813,-11.0469 M9.64063,-6.96875 C9.64063,-9.03125 10.1094,-10.5313 11.0469,-11.4688 C11.7031,-12.125 12.5208,-12.4531 13.5,-12.4531 C14.4896,-12.4531 15.3125,-12.125 15.9688,-11.4688 C16.9063,-10.5313 17.375,-9.03125 17.375,-6.96875 L17.375,-5.5625 C17.375,-3.54167 16.9063,-2.0625 15.9688,-1.125 C15.3125,-0.46875 14.4896,-0.140625 13.5,-0.140625 C12.5208,-0.140625 11.7031,-0.46875 11.0469,-1.125 C10.1094,-2.0625 9.64063,-3.54167 9.64063,-5.5625 L9.64063,-6.96875 M13.5,-11.1094 C13.0313,-11.1094 12.6094,-10.9219 12.2344,-10.5469 C11.6302,-9.94271 11.3281,-8.79688 11.3281,-7.10938 L11.3281,-5.48438 C11.3281,-3.84896 11.6563,-2.70313 12.3125,-2.04688 C12.6875,-1.67188 13.0833,-1.48438 13.5,-1.48438 C13.9688,-1.48438 14.3906,-1.67188 14.7656,-2.04688 C15.3802,-2.65104 15.6875,-3.79688 15.6875,-5.48438 L15.6875,-7.10938 C15.6875,-8.79688 15.3802,-9.94271 14.7656,-10.5469 C14.3906,-10.9219 13.9688,-11.1094 13.5,-11.1094 "/>
</g>

<g fill="#d9d9d9" fill-opacity="1" stroke="none" transform="matrix(0.512127,0,0,0.51411,34.5834,513.811)"
font-family="Yu Gothic UI" font-size="9" font-weight="400" font-style="normal" 
>
<path vector-effect="none" fill-rule="evenodd" d="M0.390625,-5.42188 L6.625,-5.42188 L6.625,-4.54688 L0.390625,-4.54688 L0.390625,-5.42188 M10.1719,-8.59375 C10.5052,-8.91667 10.6875,-9.28125 10.7188,-9.6875 L11.375,-9.6875 L11.375,-0.21875 L10.125,-0.21875 L10.125,-7.5 L8.48438,-7.5 L8.48438,-8.15625 L8.96875,-8.15625 C9.47917,-8.15625 9.88021,-8.30208 10.1719,-8.59375 "/>
</g>

<g fill="#d9d9d9" fill-opacity="1" stroke="none" transform="matrix(0.512127,0,0,0.51411,788.947,518.438)"
font-family="Yu Gothic UI" font-size="9" font-weight="400" font-style="normal" 
>
<path vector-effect="none" fill-rule="evenodd" d="M4.07813,-11.0469 C4.50521,-11.4635 4.73958,-11.9323 4.78125,-12.4531 L5.625,-12.4531 L5.625,-0.28125 L4.01563,-0.28125 L4.01563,-9.64063 L1.90625,-9.64063 L1.90625,-10.4844 L2.53125,-10.4844 C3.1875,-10.4844 3.70313,-10.6719 4.07813,-11.0469 M9.64063,-6.96875 C9.64063,-9.03125 10.1094,-10.5313 11.0469,-11.4688 C11.7031,-12.125 12.5208,-12.4531 13.5,-12.4531 C14.4896,-12.4531 15.3125,-12.125 15.9688,-11.4688 C16.9063,-10.5313 17.375,-9.03125 17.375,-6.96875 L17.375,-5.5625 C17.375,-3.54167 16.9063,-2.0625 15.9688,-1.125 C15.3125,-0.46875 14.4896,-0.140625 13.5,-0.140625 C12.5208,-0.140625 11.7031,-0.46875 11.0469,-1.125 C10.1094,-2.0625 9.64063,-3.54167 9.64063,-5.5625 L9.64063,-6.96875 M13.5,-11.1094 C13.0313,-11.1094 12.6094,-10.9219 12.2344,-10.5469 C11.6302,-9.94271 11.3281,-8.79688 11.3281,-7.10938 L11.3281,-5.48438 C11.3281,-3.84896 11.6563,-2.70313 12.3125,-2.04688 C12.6875,-1.67188 13.0833,-1.48438 13.5,-1.48438 C13.9688,-1.48438 14.3906,-1.67188 14.7656,-2.04688 C15.3802,-2.65104 15.6875,-3.79688 15.6875,-5.48438 L15.6875,-7.10938 C15.6875,-8.79688 15.3802,-9.94271 14.7656,-10.5469 C14.3906,-10.9219 13.9688,-11.1094 13.5,-11.1094 "/>
</g>

<g fill="#d9d9d9" fill-opacity="1" stroke="none" transform="matrix(0.512127,0,0,0.51411,798.165,513.811)"
font-family="Yu Gothic UI" font-size="9" font-weight="400" font-style="normal" 
>
<path vector-effect="none" fill-rule="evenodd" d="M0.5,-5.42188 C0.5,-7.02604 0.864583,-8.19271 1.59375,-8.92188 C2.10417,-9.43229 2.73958,-9.6875 3.5,-9.6875 C4.27083,-9.6875 4.91146,-9.43229 5.42188,-8.92188 C6.15104,-8.19271 6.51563,-7.02604 6.51563,-5.42188 L6.51563,-4.32813 C6.51563,-2.75521 6.15104,-1.60417 5.42188,-0.875 C4.91146,-0.364583 4.27083,-0.109375 3.5,-0.109375 C2.73958,-0.109375 2.10417,-0.364583 1.59375,-0.875 C0.864583,-1.60417 0.5,-2.75521 0.5,-4.32813 L0.5,-5.42188 M3.5,-8.64063 C3.13542,-8.64063 2.80729,-8.49479 2.51563,-8.20313 C2.04688,-7.73438 1.8125,-6.84375 1.8125,-5.53125 L1.8125,-4.26563 C1.8125,-2.99479 2.06771,-2.10417 2.57813,-1.59375 C2.86979,-1.30208 3.17708,-1.15625 3.5,-1.15625 C3.86458,-1.15625 4.19271,-1.30208 4.48438,-1.59375 C4.96354,-2.0625 5.20313,-2.95313 5.20313,-4.26563 L5.20313,-5.53125 C5.20313,-6.84375 4.96354,-7.73438 4.48438,-8.20313 C4.19271,-8.49479 3.86458,-8.64063 3.5,-8.64063 "/>
</g>

<g fill="#d9d9d9" fill-opacity="1" stroke="none" transform="matrix(0.512127,0,0,0.51411,387.439,528.986)"
font-family="Yu Gothic UI" font-size="9" font-weight="400" font-style="normal" 
>
<path vector-effect="none" fill-rule="evenodd" d="M14.9219,-15.4375 L14.9219,-12.5469 L13.6563,-12.5469 L13.6563,-15.4375 L14.9219,-15.4375 M12.9219,-15.4375 L12.9219,-12.5469 L11.6563,-12.5469 L11.6563,-15.4375 L12.9219,-15.4375 M2.89063,-13.875 L11.0625,-13.875 L11.0625,-12.4688 L2.89063,-12.4688 L2.89063,-13.875 M1.10938,-8.90625 L13.9531,-8.90625 L13.9531,-7.28125 L8.6875,-7.28125 L8.6875,-4.82813 C8.6875,-1.80729 7.32813,0.25 4.60938,1.34375 L3.64063,-0.078125 C4.97396,-0.473958 5.91146,-1.09375 6.45313,-1.9375 C6.95313,-2.67708 7.20313,-3.64063 7.20313,-4.82813 L7.20313,-7.28125 L1.10938,-7.28125 L1.10938,-8.90625 M24.9063,-1.10938 L27.6563,-1.10938 L27.6563,0.078125 L16.75,0.078125 L16.75,-1.10938 L23.5,-1.10938 L23.7969,-8.53125 L18.1563,-8.53125 L18.1563,-9.71875 L25.2031,-9.71875 L24.9063,-1.10938 M43.1094,-7.9375 L43.1094,-6.3125 L30.1875,-6.3125 L30.1875,-7.9375 L43.1094,-7.9375 M47.8906,-13.9531 L57.0313,-13.9531 L57.0313,-12.5469 L47.8906,-12.5469 L47.8906,-13.9531 M46.1094,-8.98438 L58.9531,-8.98438 L58.9531,-7.34375 L53.6875,-7.34375 L53.6875,-4.90625 C53.6875,-1.88542 52.3281,0.171875 49.6094,1.26563 L48.6406,-0.15625 C49.974,-0.59375 50.9115,-1.20833 51.4531,-2 C51.9531,-2.75 52.2031,-3.71875 52.2031,-4.90625 L52.2031,-7.34375 L46.1094,-7.34375 L46.1094,-8.98438 M64.8281,-7.64063 C66.3073,-8.93229 67.4219,-10.2708 68.1719,-11.6563 L69.5,-10.9063 C68.8542,-9.875 67.9375,-8.78646 66.75,-7.64063 L66.75,1.1875 L65.5,1.1875 L65.5,-6.39063 C64.0625,-5.09896 62.599,-4.10938 61.1094,-3.42188 L60.375,-4.60938 C62.0104,-5.44271 63.4948,-6.45313 64.8281,-7.64063 M85.1094,-7.9375 L85.1094,-6.3125 L72.1875,-6.3125 L72.1875,-7.9375 L85.1094,-7.9375 M96.2031,-8.01563 L91.8281,-8.01563 L91.8281,-1.5625 L96.3594,-2.53125 L96.6563,-1.26563 L89.2344,0.75 C89.1823,1.09375 89.0573,1.16667 88.8594,0.96875 L88.1875,-0.96875 L90.3438,-1.34375 L90.3438,-14.4688 L91.75,-14.4688 C92.1458,-14.4271 92.1719,-14.2813 91.8281,-14.0313 L91.8281,-9.42188 L96.2031,-9.42188 L96.2031,-8.01563 M104.078,-10.0938 C104.12,-9.84375 103.995,-9.77083 103.703,-9.875 L98.7344,-7.04688 L98.7344,-1.40625 C98.7344,-1.01042 98.9063,-0.8125 99.25,-0.8125 L102.297,-0.8125 C102.786,-0.8125 103.083,-1.10938 103.188,-1.70313 L103.406,-3.34375 L104.891,-2.96875 L104.734,-1.5625 C104.589,-0.125 103.948,0.59375 102.813,0.59375 L98.4375,0.59375 C97.6458,0.59375 97.25,0.171875 97.25,-0.671875 L97.25,-14.625 L98.6563,-14.625 C99.0521,-14.5729 99.0781,-14.4219 98.7344,-14.1719 L98.7344,-8.60938 L102.953,-11.3594 L104.078,-10.0938"/>
</g>

<g fill="#d9d9d9" fill-opacity="1" stroke="#d9d9d9" stroke-opacity="1" stroke-width="1" stroke-linecap="square" stroke-linejoin="round" transform="matrix(0.512127,0,0,0.51411,-94.4726,-41.4282)"
font-family="Yu Gothic UI" font-size="9" font-weight="400" font-style="normal" 
>
<polyline fill="none" vector-effect="none" points="250,1059 250,89 " />
<polyline fill="none" vector-effect="none" points="1738,1059 1738,89 " />
<polyline fill="none" vector-effect="none" points="250,931.428 264.88,931.428 " />
<polyline fill="none" vector-effect="none" points="250,730.135 264.88,730.135 " />
<polyline fill="none" vector-effect="none" points="250,574 264.88,574 " />
<polyline fill="none" vector-effect="none" points="250,446.428 264.88,446.428 " />
<polyline fill="none" vector-effect="none" points="250,338.568 264.88,338.568 " />
<polyline fill="none" vector-effect="none" points="250,245.135 264.88,245.135 " />
<polyline fill="none" vector-effect="none" points="250,162.721 264.88,162.721 " />
<polyline fill="none" vector-effect="none" points="250,89 264.88,89 " />
<polyline fill="none" vector-effect="none" points="1738,931.428 1723.12,931.428 " />
<polyline fill="none" vector-effect="none" points="1738,730.135 1723.12,730.135 " />
<polyline fill="none" vector-effect="none" points="1738,574 1723.12,574 " />
<polyline fill="none" vector-effect="none" points="1738,446.428 1723.12,446.428 " />
<polyline fill="none" vector-effect="none" points="1738,338.568 1723.12,338.568 " />
<polyline fill="none" vector-effect="none" points="1738,245.135 1723.12,245.135 " />
<polyline fill="none" vector-effect="none" points="1738,162.721 1723.12,162.721 " />
<polyline fill="none" vector-effect="none" points="1738,89 1723.12,89 " />
<polyline fill="none" vector-effect="none" points="250,1031.56 257.44,1031.56 " />
<polyline fill="none" vector-effect="none" points="250,979.703 257.44,979.703 " />
<polyline fill="none" vector-effect="none" points="250,886.27 257.44,886.27 " />
<polyline fill="none" vector-effect="none" points="250,843.851 257.44,843.851 " />
<polyline fill="none" vector-effect="none" points="250,803.857 257.44,803.857 " />
<polyline fill="none" vector-effect="none" points="250,766.025 257.44,766.025 " />
<polyline fill="none" vector-effect="none" points="250,695.996 257.44,695.996 " />
<polyline fill="none" vector-effect="none" points="250,663.446 257.44,663.446 " />
<polyline fill="none" vector-effect="none" points="250,632.343 257.44,632.343 " />
<polyline fill="none" vector-effect="none" points="250,602.563 257.44,602.563 " />
<polyline fill="none" vector-effect="none" points="250,546.557 257.44,546.557 " />
<polyline fill="none" vector-effect="none" points="250,520.15 257.44,520.15 " />
<polyline fill="none" vector-effect="none" points="250,494.703 257.44,494.703 " />
<polyline fill="none" vector-effect="none" points="250,470.149 257.44,470.149 " />
<polyline fill="none" vector-effect="none" points="250,423.485 257.44,423.485 " />
<polyline fill="none" vector-effect="none" points="250,401.27 257.44,401.27 " />
<polyline fill="none" vector-effect="none" points="250,379.739 257.44,379.739 " />
<polyline fill="none" vector-effect="none" points="250,358.851 257.44,358.851 " />
<polyline fill="none" vector-effect="none" points="250,318.857 257.44,318.857 " />
<polyline fill="none" vector-effect="none" points="250,299.685 257.44,299.685 " />
<polyline fill="none" vector-effect="none" points="250,281.025 257.44,281.025 " />
<polyline fill="none" vector-effect="none" points="250,262.85 257.44,262.85 " />
<polyline fill="none" vector-effect="none" points="250,227.858 257.44,227.858 " />
<polyline fill="none" vector-effect="none" points="250,210.996 257.44,210.996 " />
<polyline fill="none" vector-effect="none" points="250,194.532 257.44,194.532 " />
<polyline fill="none" vector-effect="none" points="250,178.446 257.44,178.446 " />
<polyline fill="none" vector-effect="none" points="250,147.343 257.44,147.343 " />
<polyline fill="none" vector-effect="none" points="250,132.295 257.44,132.295 " />
<polyline fill="none" vector-effect="none" points="250,117.563 257.44,117.563 " />
<polyline fill="none" vector-effect="none" points="250,103.136 257.44,103.136 " />
<polyline fill="none" vector-effect="none" points="1738,1031.56 1730.56,1031.56 " />
<polyline fill="none" vector-effect="none" points="1738,979.703 1730.56,979.703 " />
<polyline fill="none" vector-effect="none" points="1738,886.27 1730.56,886.27 " />
<polyline fill="none" vector-effect="none" points="1738,843.851 1730.56,843.851 " />
<polyline fill="none" vector-effect="none" points="1738,803.857 1730.56,803.857 " />
<polyline fill="none" vector-effect="none" points="1738,766.025 1730.56,766.025 " />
<polyline fill="none" vector-effect="none" points="1738,695.996 1730.56,695.996 " />
<polyline fill="none" vector-effect="none" points="1738,663.446 1730.56,663.446 " />
<polyline fill="none" vector-effect="none" points="1738,632.343 1730.56,632.343 " />
<polyline fill="none" vector-effect="none" points="1738,602.563 1730.56,602.563 " />
<polyline fill="none" vector-effect="none" points="1738,546.557 1730.56,546.557 " />
<polyline fill="none" vector-effect="none" points="1738,520.15 1730.56,520.15 " />
<polyline fill="none" vector-effect="none" points="1738,494.703 1730.56,494.703 " />
<polyline fill="none" vector-effect="none" points="1738,470.149 1730.56,470.149 " />
<polyline fill="none" vector-effect="none" points="1738,423.485 1730.56,423.485 " />
<polyline fill="none" vector-effect="none" points="1738,401.27 1730.56,401.27 " />
<polyline fill="none" vector-effect="none" points="1738,379.739 1730.56,379.739 " />
<polyline fill="none" vector-effect="none" points="1738,358.851 1730.56,358.851 " />
<polyline fill="none" vector-effect="none" points="1738,318.857 1730.56,318.857 " />
<polyline fill="none" vector-effect="none" points="1738,299.685 1730.56,299.685 " />
<polyline fill="none" vector-effect="none" points="1738,281.025 1730.56,281.025 " />
<polyline fill="none" vector-effect="none" points="1738,262.85 1730.56,262.85 " />
<polyline fill="none" vector-effect="none" points="1738,227.858 1730.56,227.858 " />
<polyline fill="none" vector-effect="none" points="1738,210.996 1730.56,210.996 " />
<polyline fill="none" vector-effect="none" points="1738,194.532 1730.56,194.532 " />
<polyline fill="none" vector-effect="none" points="1738,178.446 1730.56,178.446 " />
<polyline fill="none" vector-effect="none" points="1738,147.343 1730.56,147.343 " />
<polyline fill="none" vector-effect="none" points="1738,132.295 1730.56,132.295 " />
<polyline fill="none" vector-effect="none" points="1738,117.563 1730.56,117.563 " />
<polyline fill="none" vector-effect="none" points="1738,103.136 1730.56,103.136 " />
</g>

<g fill="#d9d9d9" fill-opacity="1" stroke="none" transform="matrix(0.512127,0,0,0.51411,20.4487,440.771)"
font-family="Yu Gothic UI" font-size="9" font-weight="400" font-style="normal" 
>
<path vector-effect="none" fill-rule="evenodd" d="M1.20313,-8.79688 C1.20313,-9.86979 1.55208,-10.7604 2.25,-11.4688 C2.86458,-12.0729 3.61458,-12.375 4.5,-12.375 C5.53125,-12.375 6.35417,-12.0729 6.96875,-11.4688 C7.53125,-10.9063 7.8125,-10.1563 7.8125,-9.21875 C7.8125,-8.28125 7.57813,-7.57813 7.10938,-7.10938 C6.77604,-6.77604 6.42188,-6.58854 6.04688,-6.54688 C6.51563,-6.40104 6.91667,-6.16667 7.25,-5.84375 C7.8125,-5.28125 8.09375,-4.53125 8.09375,-3.59375 C8.09375,-2.5625 7.76563,-1.71875 7.10938,-1.0625 C6.45313,-0.40625 5.53646,-0.078125 4.35938,-0.078125 C3.38021,-0.078125 2.5625,-0.40625 1.90625,-1.0625 C1.25,-1.71875 0.921875,-2.48958 0.921875,-3.375 L0.921875,-3.9375 L2.53125,-3.9375 L2.53125,-3.45313 C2.53125,-2.83854 2.74479,-2.32292 3.17188,-1.90625 C3.49479,-1.57292 3.89063,-1.40625 4.35938,-1.40625 C4.97396,-1.40625 5.46875,-1.59375 5.84375,-1.96875 C6.21875,-2.34375 6.40625,-2.93229 6.40625,-3.73438 C6.40625,-4.39063 6.21875,-4.90625 5.84375,-5.28125 C5.46875,-5.65625 5.04688,-5.84375 4.57813,-5.84375 L4.01563,-5.84375 L4.01563,-7.03125 L4.4375,-7.03125 C4.85417,-7.03125 5.25,-7.21875 5.625,-7.59375 C6,-7.96875 6.1875,-8.51042 6.1875,-9.21875 C6.1875,-9.82292 6,-10.3125 5.625,-10.6875 C5.34375,-10.9688 4.96875,-11.1094 4.5,-11.1094 C4.08333,-11.1094 3.70833,-10.9479 3.375,-10.625 C3,-10.25 2.79167,-9.64063 2.75,-8.79688 L1.20313,-8.79688 M9.64063,-6.96875 C9.64063,-9.03125 10.1094,-10.5313 11.0469,-11.4688 C11.7031,-12.125 12.5208,-12.4531 13.5,-12.4531 C14.4896,-12.4531 15.3125,-12.125 15.9688,-11.4688 C16.9063,-10.5313 17.375,-9.03125 17.375,-6.96875 L17.375,-5.5625 C17.375,-3.54167 16.9063,-2.0625 15.9688,-1.125 C15.3125,-0.46875 14.4896,-0.140625 13.5,-0.140625 C12.5208,-0.140625 11.7031,-0.46875 11.0469,-1.125 C10.1094,-2.0625 9.64063,-3.54167 9.64063,-5.5625 L9.64063,-6.96875 M13.5,-11.1094 C13.0313,-11.1094 12.6094,-10.9219 12.2344,-10.5469 C11.6302,-9.94271 11.3281,-8.79688 11.3281,-7.10938 L11.3281,-5.48438 C11.3281,-3.84896 11.6563,-2.70313 12.3125,-2.04688 C12.6875,-1.67188 13.0833,-1.48438 13.5,-1.48438 C13.9688,-1.48438 14.3906,-1.67188 14.7656,-2.04688 C15.3802,-2.65104 15.6875,-3.79688 15.6875,-5.48438 L15.6875,-7.10938 C15.6875,-8.79688 15.3802,-9.94271 14.7656,-10.5469 C14.3906,-10.9219 13.9688,-11.1094 13.5,-11.1094 "/>
</g>

<g fill="#d9d9d9" fill-opacity="1" stroke="none" transform="matrix(0.512127,0,0,0.51411,20.4487,337.284)"
font-family="Yu Gothic UI" font-size="9" font-weight="400" font-style="normal" 
>
<path vector-effect="none" fill-rule="evenodd" d="M5.34375,-12.375 L6.96875,-12.375 L6.96875,-4.64063 L8.4375,-4.64063 L8.4375,-3.3125 L6.96875,-3.3125 L6.96875,-0.21875 L5.34375,-0.21875 L5.34375,-3.3125 L0.640625,-3.3125 L0.640625,-4.71875 L5.34375,-12.375 M5.34375,-9.78125 L2.1875,-4.64063 L5.34375,-4.64063 L5.34375,-9.78125 M9.64063,-6.96875 C9.64063,-9.03125 10.1094,-10.5313 11.0469,-11.4688 C11.7031,-12.125 12.5208,-12.4531 13.5,-12.4531 C14.4896,-12.4531 15.3125,-12.125 15.9688,-11.4688 C16.9063,-10.5313 17.375,-9.03125 17.375,-6.96875 L17.375,-5.5625 C17.375,-3.54167 16.9063,-2.0625 15.9688,-1.125 C15.3125,-0.46875 14.4896,-0.140625 13.5,-0.140625 C12.5208,-0.140625 11.7031,-0.46875 11.0469,-1.125 C10.1094,-2.0625 9.64063,-3.54167 9.64063,-5.5625 L9.64063,-6.96875 M13.5,-11.1094 C13.0313,-11.1094 12.6094,-10.9219 12.2344,-10.5469 C11.6302,-9.94271 11.3281,-8.79688 11.3281,-7.10938 L11.3281,-5.48438 C11.3281,-3.84896 11.6563,-2.70313 12.3125,-2.04688 C12.6875,-1.67188 13.0833,-1.48438 13.5,-1.48438 C13.9688,-1.48438 14.3906,-1.67188 14.7656,-2.04688 C15.3802,-2.65104 15.6875,-3.79688 15.6875,-5.48438 L15.6875,-7.10938 C15.6875,-8.79688 15.3802,-9.94271 14.7656,-10.5469 C14.3906,-10.9219 13.9688,-11.1094 13.5,-11.1094 "/>
</g>

<g fill="#d9d9d9" fill-opacity="1" stroke="none" transform="matrix(0.512127,0,0,0.51411,20.4487,257.013)"
font-family="Yu Gothic UI" font-size="9" font-weight="400" font-style="normal" 
>
<path vector-effect="none" fill-rule="evenodd" d="M1.76563,-12.2344 L7.8125,-12.2344 L7.8125,-10.9063 L3.09375,-10.9063 L3.09375,-10.6875 C3.05208,-9.80208 2.98438,-8.9375 2.89063,-8.09375 C2.83854,-7.94792 2.8125,-7.80729 2.8125,-7.67188 C3.42708,-8.23438 4.08333,-8.51563 4.78125,-8.51563 C5.71875,-8.51563 6.49479,-8.20833 7.10938,-7.59375 C7.76563,-6.9375 8.09375,-5.97917 8.09375,-4.71875 C8.09375,-3.125 7.67188,-1.90625 6.82813,-1.0625 C6.17188,-0.40625 5.34896,-0.078125 4.35938,-0.078125 C3.42188,-0.078125 2.65104,-0.380208 2.04688,-0.984375 C1.43229,-1.59896 1.05729,-2.51563 0.921875,-3.73438 L2.53125,-3.73438 C2.625,-2.83854 2.85938,-2.20313 3.23438,-1.82813 C3.51563,-1.54688 3.86979,-1.40625 4.29688,-1.40625 C4.85938,-1.40625 5.30208,-1.57292 5.625,-1.90625 C6.14583,-2.41667 6.40625,-3.28125 6.40625,-4.5 C6.40625,-5.67708 6.19271,-6.47396 5.76563,-6.89063 C5.48438,-7.17188 5.15625,-7.3125 4.78125,-7.3125 C4.21875,-7.3125 3.72917,-7.10417 3.3125,-6.6875 C3.03125,-6.40625 2.84375,-6.19271 2.75,-6.04688 L1.34375,-6.04688 C1.38542,-6.23438 1.40625,-6.40104 1.40625,-6.54688 L1.76563,-11.9531 L1.76563,-12.2344 M9.64063,-6.96875 C9.64063,-9.03125 10.1094,-10.5313 11.0469,-11.4688 C11.7031,-12.125 12.5208,-12.4531 13.5,-12.4531 C14.4896,-12.4531 15.3125,-12.125 15.9688,-11.4688 C16.9063,-10.5313 17.375,-9.03125 17.375,-6.96875 L17.375,-5.5625 C17.375,-3.54167 16.9063,-2.0625 15.9688,-1.125 C15.3125,-0.46875 14.4896,-0.140625 13.5,-0.140625 C12.5208,-0.140625 11.7031,-0.46875 11.0469,-1.125 C10.1094,-2.0625 9.64063,-3.54167 9.64063,-5.5625 L9.64063,-6.96875 M13.5,-11.1094 C13.0313,-11.1094 12.6094,-10.9219 12.2344,-10.5469 C11.6302,-9.94271 11.3281,-8.79688 11.3281,-7.10938 L11.3281,-5.48438 C11.3281,-3.84896 11.6563,-2.70313 12.3125,-2.04688 C12.6875,-1.67188 13.0833,-1.48438 13.5,-1.48438 C13.9688,-1.48438 14.3906,-1.67188 14.7656,-2.04688 C15.3802,-2.65104 15.6875,-3.79688 15.6875,-5.48438 L15.6875,-7.10938 C15.6875,-8.79688 15.3802,-9.94271 14.7656,-10.5469 C14.3906,-10.9219 13.9688,-11.1094 13.5,-11.1094 "/>
</g>

<g fill="#d9d9d9" fill-opacity="1" stroke="none" transform="matrix(0.512127,0,0,0.51411,20.4487,191.427)"
font-family="Yu Gothic UI" font-size="9" font-weight="400" font-style="normal" 
>
<path vector-effect="none" fill-rule="evenodd" d="M0.984375,-5.98438 C0.984375,-8.55729 1.54688,-10.4063 2.67188,-11.5313 C3.23438,-12.0938 3.9375,-12.375 4.78125,-12.375 C5.67708,-12.375 6.40625,-12.0938 6.96875,-11.5313 C7.57292,-10.9271 7.875,-10.1563 7.875,-9.21875 L6.26563,-9.21875 C6.26563,-9.875 6.125,-10.3438 5.84375,-10.625 C5.5625,-10.9063 5.20833,-11.0469 4.78125,-11.0469 C4.36458,-11.0469 4.01563,-10.9063 3.73438,-10.625 C2.98438,-9.875 2.60938,-8.5625 2.60938,-6.6875 C2.79688,-7.01042 3.03125,-7.3125 3.3125,-7.59375 C3.72917,-8.02083 4.24479,-8.23438 4.85938,-8.23438 C5.70313,-8.23438 6.40625,-7.95313 6.96875,-7.39063 C7.66667,-6.68229 8.01563,-5.625 8.01563,-4.21875 C8.01563,-2.77083 7.64063,-1.67188 6.89063,-0.921875 C6.32813,-0.359375 5.55729,-0.078125 4.57813,-0.078125 C3.73438,-0.078125 2.95833,-0.427083 2.25,-1.125 C1.40625,-1.96875 0.984375,-3.58854 0.984375,-5.98438 M4.71875,-6.96875 C4.25,-6.96875 3.84896,-6.80208 3.51563,-6.46875 C3.00521,-5.95833 2.75,-5.25521 2.75,-4.35938 C2.75,-3.23438 3.03125,-2.39063 3.59375,-1.82813 C3.91667,-1.50521 4.26563,-1.34375 4.64063,-1.34375 C5.06771,-1.34375 5.42188,-1.48438 5.70313,-1.76563 C6.11979,-2.18229 6.32813,-3 6.32813,-4.21875 C6.32813,-5.30208 6.11979,-6.05208 5.70313,-6.46875 C5.36979,-6.80208 5.04167,-6.96875 4.71875,-6.96875 M9.64063,-6.96875 C9.64063,-9.03125 10.1094,-10.5313 11.0469,-11.4688 C11.7031,-12.125 12.5208,-12.4531 13.5,-12.4531 C14.4896,-12.4531 15.3125,-12.125 15.9688,-11.4688 C16.9063,-10.5313 17.375,-9.03125 17.375,-6.96875 L17.375,-5.5625 C17.375,-3.54167 16.9063,-2.0625 15.9688,-1.125 C15.3125,-0.46875 14.4896,-0.140625 13.5,-0.140625 C12.5208,-0.140625 11.7031,-0.46875 11.0469,-1.125 C10.1094,-2.0625 9.64063,-3.54167 9.64063,-5.5625 L9.64063,-6.96875 M13.5,-11.1094 C13.0313,-11.1094 12.6094,-10.9219 12.2344,-10.5469 C11.6302,-9.94271 11.3281,-8.79688 11.3281,-7.10938 L11.3281,-5.48438 C11.3281,-3.84896 11.6563,-2.70313 12.3125,-2.04688 C12.6875,-1.67188 13.0833,-1.48438 13.5,-1.48438 C13.9688,-1.48438 14.3906,-1.67188 14.7656,-2.04688 C15.3802,-2.65104 15.6875,-3.79688 15.6875,-5.48438 L15.6875,-7.10938 C15.6875,-8.79688 15.3802,-9.94271 14.7656,-10.5469 C14.3906,-10.9219 13.9688,-11.1094 13.5,-11.1094 "/>
</g>

<g fill="#d9d9d9" fill-opacity="1" stroke="none" transform="matrix(0.512127,0,0,0.51411,20.4487,135.975)"
font-family="Yu Gothic UI" font-size="9" font-weight="400" font-style="normal" 
>
<path vector-effect="none" fill-rule="evenodd" d="M1.20313,-12.2344 L7.875,-12.2344 L7.875,-10.6875 L4.5,-0.21875 L2.95313,-0.21875 L6.32813,-10.9063 L1.20313,-10.9063 L1.20313,-12.2344 M9.64063,-6.96875 C9.64063,-9.03125 10.1094,-10.5313 11.0469,-11.4688 C11.7031,-12.125 12.5208,-12.4531 13.5,-12.4531 C14.4896,-12.4531 15.3125,-12.125 15.9688,-11.4688 C16.9063,-10.5313 17.375,-9.03125 17.375,-6.96875 L17.375,-5.5625 C17.375,-3.54167 16.9063,-2.0625 15.9688,-1.125 C15.3125,-0.46875 14.4896,-0.140625 13.5,-0.140625 C12.5208,-0.140625 11.7031,-0.46875 11.0469,-1.125 C10.1094,-2.0625 9.64063,-3.54167 9.64063,-5.5625 L9.64063,-6.96875 M13.5,-11.1094 C13.0313,-11.1094 12.6094,-10.9219 12.2344,-10.5469 C11.6302,-9.94271 11.3281,-8.79688 11.3281,-7.10938 L11.3281,-5.48438 C11.3281,-3.84896 11.6563,-2.70313 12.3125,-2.04688 C12.6875,-1.67188 13.0833,-1.48438 13.5,-1.48438 C13.9688,-1.48438 14.3906,-1.67188 14.7656,-2.04688 C15.3802,-2.65104 15.6875,-3.79688 15.6875,-5.48438 L15.6875,-7.10938 C15.6875,-8.79688 15.3802,-9.94271 14.7656,-10.5469 C14.3906,-10.9219 13.9688,-11.1094 13.5,-11.1094 "/>
</g>

<g fill="#d9d9d9" fill-opacity="1" stroke="none" transform="matrix(0.512127,0,0,0.51411,20.4487,87.94)"
font-family="Yu Gothic UI" font-size="9" font-weight="400" font-style="normal" 
>
<path vector-effect="none" fill-rule="evenodd" d="M1.20313,-9 C1.20313,-10.0313 1.53125,-10.875 2.1875,-11.5313 C2.75,-12.0938 3.52083,-12.375 4.5,-12.375 C5.48958,-12.375 6.28646,-12.0729 6.89063,-11.4688 C7.50521,-10.8542 7.8125,-10.0313 7.8125,-9 C7.8125,-8.20833 7.53125,-7.53125 6.96875,-6.96875 C6.72917,-6.72917 6.44792,-6.5625 6.125,-6.46875 L6.125,-6.32813 C6.54167,-6.23438 6.9375,-6 7.3125,-5.625 C7.875,-5.0625 8.15625,-4.3125 8.15625,-3.375 C8.15625,-2.4375 7.82813,-1.64063 7.17188,-0.984375 C6.56771,-0.380208 5.67708,-0.078125 4.5,-0.078125 C3.33333,-0.078125 2.44271,-0.380208 1.82813,-0.984375 C1.17188,-1.64063 0.84375,-2.4375 0.84375,-3.375 C0.84375,-4.3125 1.125,-5.0625 1.6875,-5.625 C2.0625,-6 2.46354,-6.23438 2.89063,-6.32813 L2.89063,-6.46875 C2.60938,-6.5625 2.30208,-6.77604 1.96875,-7.10938 C1.45833,-7.61979 1.20313,-8.25 1.20313,-9 M4.5,-11.1094 C4.03125,-11.1094 3.63542,-10.9479 3.3125,-10.625 C2.9375,-10.25 2.75,-9.70833 2.75,-9 C2.75,-8.34375 2.9375,-7.82813 3.3125,-7.45313 C3.63542,-7.13021 4.01042,-6.96875 4.4375,-6.96875 C5,-6.96875 5.42188,-7.10938 5.70313,-7.39063 C6.07813,-7.76563 6.26563,-8.30208 6.26563,-9 C6.26563,-9.70833 6.07813,-10.25 5.70313,-10.625 C5.36979,-10.9479 4.96875,-11.1094 4.5,-11.1094 M4.5,-5.76563 C3.89583,-5.76563 3.40625,-5.57813 3.03125,-5.20313 C2.65625,-4.82813 2.46875,-4.29167 2.46875,-3.59375 C2.46875,-2.88542 2.67708,-2.32292 3.09375,-1.90625 C3.46875,-1.53125 3.9375,-1.34375 4.5,-1.34375 C5.0625,-1.34375 5.53125,-1.53125 5.90625,-1.90625 C6.33333,-2.32292 6.54688,-2.88542 6.54688,-3.59375 C6.54688,-4.29167 6.33333,-4.85417 5.90625,-5.28125 C5.58333,-5.60417 5.11458,-5.76563 4.5,-5.76563 M9.64063,-6.96875 C9.64063,-9.03125 10.1094,-10.5313 11.0469,-11.4688 C11.7031,-12.125 12.5208,-12.4531 13.5,-12.4531 C14.4896,-12.4531 15.3125,-12.125 15.9688,-11.4688 C16.9063,-10.5313 17.375,-9.03125 17.375,-6.96875 L17.375,-5.5625 C17.375,-3.54167 16.9063,-2.0625 15.9688,-1.125 C15.3125,-0.46875 14.4896,-0.140625 13.5,-0.140625 C12.5208,-0.140625 11.7031,-0.46875 11.0469,-1.125 C10.1094,-2.0625 9.64063,-3.54167 9.64063,-5.5625 L9.64063,-6.96875 M13.5,-11.1094 C13.0313,-11.1094 12.6094,-10.9219 12.2344,-10.5469 C11.6302,-9.94271 11.3281,-8.79688 11.3281,-7.10938 L11.3281,-5.48438 C11.3281,-3.84896 11.6563,-2.70313 12.3125,-2.04688 C12.6875,-1.67188 13.0833,-1.48438 13.5,-1.48438 C13.9688,-1.48438 14.3906,-1.67188 14.7656,-2.04688 C15.3802,-2.65104 15.6875,-3.79688 15.6875,-5.48438 L15.6875,-7.10938 C15.6875,-8.79688 15.3802,-9.94271 14.7656,-10.5469 C14.3906,-10.9219 13.9688,-11.1094 13.5,-11.1094 "/>
</g>

<g fill="#d9d9d9" fill-opacity="1" stroke="none" transform="matrix(0.512127,0,0,0.51411,20.4487,45.5703)"
font-family="Yu Gothic UI" font-size="9" font-weight="400" font-style="normal" 
>
<path vector-effect="none" fill-rule="evenodd" d="M0.984375,-8.23438 C0.984375,-9.64063 1.40625,-10.7656 2.25,-11.6094 C2.77083,-12.1198 3.47396,-12.375 4.35938,-12.375 C5.20313,-12.375 5.93229,-12.0729 6.54688,-11.4688 C7.52604,-10.4792 8.01563,-8.76563 8.01563,-6.32813 C8.01563,-3.84896 7.5,-2.09375 6.46875,-1.0625 C5.8125,-0.40625 5.04167,-0.078125 4.15625,-0.078125 C3.26042,-0.078125 2.55729,-0.333333 2.04688,-0.84375 C1.43229,-1.45833 1.125,-2.25521 1.125,-3.23438 L2.75,-3.23438 C2.69792,-2.63021 2.88542,-2.11458 3.3125,-1.6875 C3.5,-1.5 3.78125,-1.40625 4.15625,-1.40625 C4.57292,-1.40625 4.94792,-1.57292 5.28125,-1.90625 C6.03125,-2.65625 6.40625,-4.03646 6.40625,-6.04688 C6.21875,-5.76563 6.00521,-5.51042 5.76563,-5.28125 C5.25521,-4.76042 4.625,-4.5 3.875,-4.5 C3.16667,-4.5 2.57813,-4.73438 2.10938,-5.20313 C1.35938,-5.95313 0.984375,-6.96354 0.984375,-8.23438 M4.35938,-11.1094 C3.98438,-11.1094 3.65625,-10.9688 3.375,-10.6875 C2.90625,-10.2188 2.67188,-9.40104 2.67188,-8.23438 C2.67188,-7.29688 2.85938,-6.64063 3.23438,-6.26563 C3.56771,-5.93229 3.89583,-5.76563 4.21875,-5.76563 C4.78125,-5.76563 5.20313,-5.90625 5.48438,-6.1875 C6.00521,-6.70833 6.26563,-7.34375 6.26563,-8.09375 C6.26563,-9.26042 6.00521,-10.1042 5.48438,-10.625 C5.16146,-10.9479 4.78646,-11.1094 4.35938,-11.1094 M9.64063,-6.96875 C9.64063,-9.03125 10.1094,-10.5313 11.0469,-11.4688 C11.7031,-12.125 12.5208,-12.4531 13.5,-12.4531 C14.4896,-12.4531 15.3125,-12.125 15.9688,-11.4688 C16.9063,-10.5313 17.375,-9.03125 17.375,-6.96875 L17.375,-5.5625 C17.375,-3.54167 16.9063,-2.0625 15.9688,-1.125 C15.3125,-0.46875 14.4896,-0.140625 13.5,-0.140625 C12.5208,-0.140625 11.7031,-0.46875 11.0469,-1.125 C10.1094,-2.0625 9.64063,-3.54167 9.64063,-5.5625 L9.64063,-6.96875 M13.5,-11.1094 C13.0313,-11.1094 12.6094,-10.9219 12.2344,-10.5469 C11.6302,-9.94271 11.3281,-8.79688 11.3281,-7.10938 L11.3281,-5.48438 C11.3281,-3.84896 11.6563,-2.70313 12.3125,-2.04688 C12.6875,-1.67188 13.0833,-1.48438 13.5,-1.48438 C13.9688,-1.48438 14.3906,-1.67188 14.7656,-2.04688 C15.3802,-2.65104 15.6875,-3.79688 15.6875,-5.48438 L15.6875,-7.10938 C15.6875,-8.79688 15.3802,-9.94271 14.7656,-10.5469 C14.3906,-10.9219 13.9688,-11.1094 13.5,-11.1094 "/>
</g>

<g fill="#d9d9d9" fill-opacity="1" stroke="none" transform="matrix(0.512127,0,0,0.51411,15.8396,7.66933)"
font-family="Yu Gothic UI" font-size="9" font-weight="400" font-style="normal" 
>
<path vector-effect="none" fill-rule="evenodd" d="M4.07813,-11.0469 C4.50521,-11.4635 4.73958,-11.9323 4.78125,-12.4531 L5.625,-12.4531 L5.625,-0.28125 L4.01563,-0.28125 L4.01563,-9.64063 L1.90625,-9.64063 L1.90625,-10.4844 L2.53125,-10.4844 C3.1875,-10.4844 3.70313,-10.6719 4.07813,-11.0469 M9.64063,-6.96875 C9.64063,-9.03125 10.1094,-10.5313 11.0469,-11.4688 C11.7031,-12.125 12.5208,-12.4531 13.5,-12.4531 C14.4896,-12.4531 15.3125,-12.125 15.9688,-11.4688 C16.9063,-10.5313 17.375,-9.03125 17.375,-6.96875 L17.375,-5.5625 C17.375,-3.54167 16.9063,-2.0625 15.9688,-1.125 C15.3125,-0.46875 14.4896,-0.140625 13.5,-0.140625 C12.5208,-0.140625 11.7031,-0.46875 11.0469,-1.125 C10.1094,-2.0625 9.64063,-3.54167 9.64063,-5.5625 L9.64063,-6.96875 M13.5,-11.1094 C13.0313,-11.1094 12.6094,-10.9219 12.2344,-10.5469 C11.6302,-9.94271 11.3281,-8.79688 11.3281,-7.10938 L11.3281,-5.48438 C11.3281,-3.84896 11.6563,-2.70313 12.3125,-2.04688 C12.6875,-1.67188 13.0833,-1.48438 13.5,-1.48438 C13.9688,-1.48438 14.3906,-1.67188 14.7656,-2.04688 C15.3802,-2.65104 15.6875,-3.79688 15.6875,-5.48438 L15.6875,-7.10938 C15.6875,-8.79688 15.3802,-9.94271 14.7656,-10.5469 C14.3906,-10.9219 13.9688,-11.1094 13.5,-11.1094 M18.6406,-6.96875 C18.6406,-9.03125 19.1094,-10.5313 20.0469,-11.4688 C20.7031,-12.125 21.5208,-12.4531 22.5,-12.4531 C23.4896,-12.4531 24.3125,-12.125 24.9688,-11.4688 C25.9063,-10.5313 26.375,-9.03125 26.375,-6.96875 L26.375,-5.5625 C26.375,-3.54167 25.9063,-2.0625 24.9688,-1.125 C24.3125,-0.46875 23.4896,-0.140625 22.5,-0.140625 C21.5208,-0.140625 20.7031,-0.46875 20.0469,-1.125 C19.1094,-2.0625 18.6406,-3.54167 18.6406,-5.5625 L18.6406,-6.96875 M22.5,-11.1094 C22.0313,-11.1094 21.6094,-10.9219 21.2344,-10.5469 C20.6302,-9.94271 20.3281,-8.79688 20.3281,-7.10938 L20.3281,-5.48438 C20.3281,-3.84896 20.6563,-2.70313 21.3125,-2.04688 C21.6875,-1.67188 22.0833,-1.48438 22.5,-1.48438 C22.9688,-1.48438 23.3906,-1.67188 23.7656,-2.04688 C24.3802,-2.65104 24.6875,-3.79688 24.6875,-5.48438 L24.6875,-7.10938 C24.6875,-8.79688 24.3802,-9.94271 23.7656,-10.5469 C23.3906,-10.9219 22.9688,-11.1094 22.5,-11.1094 "/>
</g>

<g fill="#d9d9d9" fill-opacity="1" stroke="none" transform="matrix(0,-0.51411,0.512127,0,9.18191,274.75)"
font-family="Yu Gothic UI" font-size="9" font-weight="400" font-style="normal" 
>
<path vector-effect="none" fill-rule="evenodd" d="M18.1875,-1.10938 C18.1354,0.723958 17.3177,1.64063 15.7344,1.64063 L9.95313,1.64063 C9.05729,1.64063 8.60938,1.21875 8.60938,0.375 L8.60938,-1.04688 L4.75,-1.04688 L4.75,0.21875 L3.48438,0.21875 L3.48438,-7.04688 L15.5938,-7.04688 L15.5938,-1.04688 L10.0938,-1.04688 L10.0938,-0.375 C10.0938,0.0208333 10.2656,0.21875 10.6094,0.21875 L15.5156,0.21875 C16.1615,0.21875 16.5052,-0.322917 16.5469,-1.40625 L18.1875,-1.10938 M4.75,-2.23438 L8.60938,-2.23438 L8.60938,-3.48438 L4.75,-3.48438 L4.75,-2.23438 M4.75,-4.67188 L8.60938,-4.67188 L8.60938,-5.85938 L4.75,-5.85938 L4.75,-4.67188 M10.0938,-2.23438 L14.3281,-2.23438 L14.3281,-3.48438 L10.0938,-3.48438 L10.0938,-2.23438 M10.0938,-4.67188 L14.3281,-4.67188 L14.3281,-5.85938 L10.0938,-5.85938 L10.0938,-4.67188 M3.85938,-9.875 L3.85938,-10.7656 L7.9375,-10.7656 L7.9375,-9.875 L3.85938,-9.875 M7.9375,-8.09375 L3.85938,-8.09375 L3.85938,-8.98438 L7.9375,-8.98438 L7.9375,-8.09375 M10.9844,-8.09375 L10.9844,-8.98438 L15.2969,-8.98438 L15.2969,-8.09375 L10.9844,-8.09375 M10.9844,-9.875 L10.9844,-10.7656 L15.2969,-10.7656 L15.2969,-9.875 L10.9844,-9.875 M16.1094,-13.8125 L10.1719,-13.8125 L10.1719,-12.625 L17.5938,-12.625 L17.5938,-9.0625 L16.1094,-9.0625 L16.1094,-11.7344 L10.1719,-11.7344 L10.1719,-7.5 L8.6875,-7.5 L8.6875,-11.7344 L2.96875,-11.7344 L2.96875,-8.76563 L1.48438,-8.76563 L1.48438,-12.625 L8.6875,-12.625 L8.6875,-13.8125 L2.75,-13.8125 L2.75,-15 L16.1094,-15 L16.1094,-13.8125 M22.9375,-11.1406 C22.2396,-11.8802 21.474,-12.5469 20.6406,-13.1406 L21.75,-14.4688 C22.6354,-13.9271 23.401,-13.2865 24.0469,-12.5469 L22.9375,-11.1406 M31.0313,-13.3594 L36.5156,-13.3594 L36.5156,-11.9531 L30.2813,-11.9531 L28.5781,-9.125 L32.9531,-9.35938 L31.3281,-10.6094 L32.5156,-11.3594 C34.1406,-10.4219 35.526,-9.30729 36.6719,-8.01563 L35.4063,-6.98438 L34.2188,-8.17188 L25.3906,-7.5 C25.3385,-7.15625 25.2135,-7.08333 25.0156,-7.28125 L24.5,-8.98438 L27.0156,-9.0625 L28.3594,-11.9531 L24.5,-11.9531 L24.5,-13.3594 L29.3125,-13.3594 L29.3125,-15.3594 L30.9531,-15.3594 C31.4427,-15.2656 31.4688,-15.0677 31.0313,-14.7656 L31.0313,-13.3594 M19.9688,0.21875 C21.0104,-1.45833 21.9271,-3.3125 22.7188,-5.34375 L24.0469,-4.45313 C23.2552,-2.18229 22.4375,-0.348958 21.5938,1.04688 C21.6979,1.33854 21.625,1.45833 21.375,1.40625 L19.9688,0.21875 M22.7813,-6.82813 C22.0417,-7.42188 21.2292,-8.04167 20.3438,-8.6875 L21.2969,-10.0938 C22.3385,-9.44792 23.1823,-8.85417 23.8281,-8.3125 L22.7813,-6.82813 M30.7969,0.515625 L29.3125,0.515625 L29.3125,-6.53125 L30.7344,-6.53125 C31.1302,-6.47917 31.151,-6.33333 30.7969,-6.09375 L30.7969,0.515625 M32.5781,-6.6875 L34,-6.6875 C34.3958,-6.63542 34.4167,-6.48438 34.0625,-6.23438 L34.0625,-0.671875 C34.0625,-0.276042 34.2396,-0.078125 34.5938,-0.078125 L35.0313,-0.078125 C35.2813,-0.078125 35.4323,-0.25 35.4844,-0.59375 L35.625,-1.78125 L37.1094,-1.40625 C37.0573,-0.770833 36.9583,-0.151042 36.8125,0.453125 C36.6667,1.04688 36.2969,1.34375 35.7031,1.34375 L33.7656,1.34375 C32.974,1.34375 32.5781,0.921875 32.5781,0.078125 L32.5781,-6.6875 M27.4688,-3.125 C27.4688,-1.04167 26.3542,0.567708 24.125,1.70313 L23.0781,0.453125 C25.0156,-0.546875 25.9844,-1.83854 25.9844,-3.42188 L25.9844,-6.60938 L27.3906,-6.60938 C27.7865,-6.55729 27.8125,-6.40625 27.4688,-6.15625 L27.4688,-3.125 M45.4844,-14.8438 L50.1563,-14.8438 L50.1563,-13.6563 L46.75,-13.6563 L46.75,0.515625 L50.1563,0.515625 L50.1563,1.70313 L45.4844,1.70313 L45.4844,-14.8438 M52.5938,-0.21875 L51.1094,-0.21875 L51.1094,-8.53125 L52.5938,-8.53125 L52.5938,-7.28125 C53.2396,-8.21875 53.9844,-8.6875 54.8281,-8.6875 C55.7656,-8.6875 56.4844,-8.4375 56.9844,-7.9375 C57.224,-7.69792 57.4219,-7.42708 57.5781,-7.125 C58.2135,-8.16667 59.1042,-8.6875 60.25,-8.6875 C61.0417,-8.6875 61.6563,-8.46354 62.0938,-8.01563 C62.5938,-7.52604 62.8438,-6.98438 62.8438,-6.39063 L62.8438,-0.21875 L61.3594,-0.21875 L61.3594,-6.09375 C61.3594,-6.38542 61.2604,-6.63021 61.0625,-6.82813 C60.7604,-7.13021 60.4115,-7.28125 60.0156,-7.28125 C59.3281,-7.28125 58.7604,-7.05729 58.3125,-6.60938 C57.9167,-6.21354 57.7188,-5.84375 57.7188,-5.5 L57.7188,-0.21875 L56.2344,-0.21875 L56.2344,-6.01563 C56.2344,-6.30729 56.0885,-6.60417 55.7969,-6.90625 C55.5469,-7.15625 55.1719,-7.28125 54.6719,-7.28125 C54.1302,-7.28125 53.6615,-7.08333 53.2656,-6.6875 C52.8177,-6.23958 52.5938,-5.81771 52.5938,-5.42188 L52.5938,-0.21875 M64.2188,-0.21875 L69.2656,-13.0625 L70.75,-13.0625 L75.7969,-0.21875 L74.0156,-0.21875 L72.4688,-4.07813 L67.5625,-4.07813 L66,-0.21875 L64.2188,-0.21875 M70.0156,-10.6094 L68.0781,-5.5 L71.9375,-5.5 L70.0156,-10.6094 M76.1563,-14.8438 L80.8281,-14.8438 L80.8281,1.70313 L76.1563,1.70313 L76.1563,0.515625 L79.5625,0.515625 L79.5625,-13.6563 L76.1563,-13.6563 L76.1563,-14.8438"/>
</g>

<g fill="#268cdd" fill-opacity="1" stroke="#268cdd" stroke-opacity="1" stroke-width="1" stroke-linecap="butt" stroke-linejoin="round" transform="matrix(0.512127,0,0,0.51411,-94.4726,-41.4282)"
font-family="Yu Gothic UI" font-size="9" font-weight="400" font-style="normal" 
>
<polyline fill="none" vector-effect="none" points="1738,1059 250,89 " />
</g>

<g fill="#d9d9d9" fill-opacity="0.701961" stroke="#d9d9d9" stroke-opacity="0.701961" stroke-width="1" stroke-linecap="butt" stroke-linejoin="round" transform="matrix(0.512127,0,0,0.51411,-94.4726,-41.4282)"
font-family="Yu Gothic UI" font-size="9" font-weight="400" font-style="normal" 
>
<polyline fill="none" vector-effect="none" points="580.111,1059 580.111,89 " />
<polyline fill="none" vector-effect="none" points="250,299.685 1738,299.685 " />
</g>
</g>
</svg>
